<svg width="42" height="40" viewBox="0 0 42 40" fill="none" xmlns="http://www.w3.org/2000/svg">
<path d="M21 2V36.5M21 36.5C18.056 36.5 15.236 37.03 12.63 38M21 36.5C23.944 36.5 26.764 37.03 29.37 38M34.5 5.94C30.0274 5.31222 25.5164 4.99812 21 5C16.418 5 11.91 5.32 7.5 5.94M34.5 5.94C36.52 6.226 38.52 6.574 40.5 6.98M34.5 5.94L39.74 27.392C39.984 28.39 39.528 29.448 38.562 29.796C37.2589 30.2637 35.8845 30.5019 34.5 30.5C33.1155 30.5019 31.7411 30.2637 30.438 29.796C29.472 29.448 29.016 28.39 29.258 27.392L34.5 5.942V5.94ZM7.5 5.94C5.48 6.226 3.48 6.574 1.5 6.98M7.5 5.94L12.74 27.392C12.984 28.39 12.528 29.448 11.562 29.796C10.2589 30.2637 8.88451 30.5019 7.5 30.5C6.11549 30.5019 4.74114 30.2637 3.438 29.796C2.472 29.448 2.016 28.39 2.258 27.392L7.5 5.942V5.94Z" stroke="#C293FF" stroke-width="3" stroke-linecap="round" stroke-linejoin="round"/>
</svg>
