<svg width="46" height="41" viewBox="0 0 46 41" fill="none" xmlns="http://www.w3.org/2000/svg">
<path fill-rule="evenodd" clip-rule="evenodd" d="M13.8102 0.98584C12.1256 0.98584 10.4575 1.3184 8.90161 1.96444C7.34628 2.61026 5.9337 3.55664 4.74479 4.74936C-0.345269 9.84074 -0.458449 18.259 5.57295 24.4034L5.586 24.4166L21.586 40.4166C21.9611 40.7916 22.4698 41.0024 23.0002 41.0024C23.5307 41.0024 24.0394 40.7916 24.4144 40.4166L40.4144 24.4166L40.4275 24.4034C46.4589 18.2591 46.3457 9.84075 41.2557 4.74937C40.0667 3.55665 38.6542 2.61026 37.0988 1.96444C35.543 1.3184 33.8749 0.98584 32.1902 0.98584C30.5056 0.98584 28.8375 1.3184 27.2816 1.96444C25.7257 2.61048 24.3127 3.5573 23.1236 4.7506L23.1235 4.75058L23.1169 4.7573L23.0002 4.8755L22.8835 4.7573L22.8835 4.75728L22.8769 4.7506C21.6877 3.5573 20.2747 2.61048 18.7188 1.96444C17.163 1.3184 15.4949 0.98584 13.8102 0.98584ZM10.4355 5.65863C11.5052 5.21447 12.652 4.98584 13.8102 4.98584C14.9684 4.98584 16.1152 5.21447 17.1849 5.65863C18.2532 6.1022 19.2235 6.75203 20.0404 7.57092L20.0436 7.57411L20.1831 7.71551L15.3249 12.5892L15.3215 12.5927C14.1585 13.7652 13.5059 15.3498 13.5059 17.0012C13.5059 18.6526 14.1585 20.2372 15.3215 21.4096L15.333 21.4211C16.5054 22.5841 18.09 23.2367 19.7414 23.2367C21.3903 23.2367 22.9725 22.5862 24.1444 21.4266L28.6597 17.0111L28.6597 17.0112L28.6681 17.0029C29.417 16.262 30.4279 15.8464 31.4814 15.8464C32.5333 15.8464 33.5429 16.2607 34.2914 16.9996L34.2947 17.0029L38.2057 20.9139C38.0081 21.1433 37.7993 21.3705 37.5792 21.595L35.0006 24.1736L32.4143 21.5873C31.6332 20.8062 30.3669 20.8062 29.5858 21.5873C28.8048 22.3683 28.8048 23.6346 29.5858 24.4157L32.1721 27.002L29.0006 30.1736L26.4143 27.5873C25.6332 26.8062 24.3669 26.8062 23.5858 27.5873C22.8048 28.3683 22.8048 29.6346 23.5858 30.4157L26.1722 33.002L23.0002 36.1739L8.42127 21.595C3.77973 16.8609 4.1872 10.9638 7.57443 7.57657L7.57689 7.57411C8.39443 6.75372 9.36589 6.10278 10.4355 5.65863ZM40.3466 17.3979C41.7544 13.7366 40.8587 10.0093 38.426 7.57657L38.4235 7.57411C37.606 6.75372 36.6345 6.10278 35.5649 5.65863C34.4952 5.21447 33.3484 4.98584 32.1902 4.98584C31.032 4.98584 29.8852 5.21447 28.8155 5.65863C27.7473 6.1022 26.777 6.75203 25.9601 7.57092L25.9569 7.57411L24.4322 9.11863L24.4179 9.13315L18.1614 15.4096L18.1599 15.4111C17.741 15.8342 17.5059 16.4057 17.5059 17.0012C17.5059 17.5947 17.7394 18.1642 18.1556 18.587C18.5784 19.0032 19.1479 19.2367 19.7414 19.2367C20.3376 19.2367 20.9097 19.0011 21.333 18.5812L21.3431 18.5712L25.8592 14.1551C27.3565 12.6759 29.3765 11.8464 31.4814 11.8464C33.5884 11.8464 35.6103 12.6776 37.1081 14.1595L37.1156 14.167L40.3466 17.3979Z" fill="#C293FF"/>
</svg>
